<?xml version="1.0" encoding="utf-8"?>
<!-- Generator: Adobe Illustrator 18.1.0, SVG Export Plug-In . SVG Version: 6.00 Build 0)  -->
<svg version="1.1" id="Layer_1" xmlns="http://www.w3.org/2000/svg" xmlns:xlink="http://www.w3.org/1999/xlink" x="0px" y="0px"
	 viewBox="0 0 1500 1500" enable-background="new 0 0 1500 1500" xml:space="preserve">
<g>
	<path fill="#848B91" d="M407.9,951.1c-50.1,78.6-178.7,171.6-178.7,171.6v35.7h164.4c0,0,68-8.8,151.7-79.5L620,828.7
		C543.2,770.1,448.1,888.1,407.9,951.1z"/>
	<path fill="#4F4F51" d="M672.5,1084.1l-22.2,74.3l-0.6,2l644.8,5.1c0,0,0-157.3,0-207.3c0-50-185.9-436.2-286-443.3
		c-69.9-5-157.3,133-249.9,280L672.5,1084.1z M375.8,429.2c-57.3,0-103.7,46.4-103.7,103.7c0,57.2,46.4,103.7,103.7,103.7
		c57.2,0,103.7-46.4,103.7-103.7C479.4,475.6,433,429.2,375.8,429.2z M918.4,245.9l-23.6,79.3h429.5v898.6H626.8l-23.6,79.3h821.3
		V245.9H918.4z M891.7,162c1.2-4.1,1.6-8.3,1.3-12.4c-1-14.1-10.4-26.9-24.8-31.1c-18.4-5.5-38,5-43.4,23.5l-31,103.9H89v1057.2
		h389.5l-29.8,100c-5.6,18.5,5,38,23.6,43.5c18.4,5.5,37.9-5,43.4-23.5l0.6-1.9L891.7,162z M545.3,1079
		c-83.7,70.6-151.7,79.5-151.7,79.5l127.7,1l-19.2,64.3H189.2V325.2h580.9L620,828.7L545.3,1079z"/>
</g>
</svg>
